<?xml version="1.0" encoding="UTF-8"?>
<svg version="1.1" xmlns="http://www.w3.org/2000/svg" width="521" height="545">
<path d="M0 0 C167.31 0 334.62 0 507 0 C507 60.06 507 120.12 507 182 C502.38 182 497.76 182 493 182 C493 242.06 493 302.12 493 364 C451.09 364 409.18 364 366 364 C366 423.73 366 483.46 366 545 C249.84 545 133.68 545 14 545 C14 485.27 14 425.54 14 364 C4.76 364 -4.48 364 -14 364 C-14 303.61 -14 243.22 -14 181 C-9.38 181 -4.76 181 0 181 C0 121.27 0 61.54 0 0 Z " fill="#629FDD" transform="translate(14,0)"/>
<path d="M0 0 C167.31 0 334.62 0 507 0 C507 60.06 507 120.12 507 182 C339.69 182 172.38 182 0 182 C0 121.94 0 61.88 0 0 Z " fill="#72B8FE" transform="translate(14,0)"/>
<path d="M0 0 C88.04333501 -0.04033135 88.04333501 -0.04033135 124.72070312 -0.04882812 C133.11661786 -0.05078614 141.51253257 -0.05280667 149.90844727 -0.05493164 C150.9608097 -0.05519539 152.01317213 -0.05545914 153.09742433 -0.05573088 C170.11046648 -0.060086 187.12350526 -0.06797301 204.13654541 -0.0771528 C221.58281148 -0.08648818 239.02907578 -0.09205536 256.47534424 -0.09408849 C267.24976139 -0.09546396 278.02416905 -0.09981584 288.79858328 -0.10791647 C296.1764217 -0.1131825 303.55425517 -0.11480462 310.93209534 -0.11350138 C315.19541173 -0.11285777 319.45871146 -0.11387802 323.72202492 -0.11920547 C327.61845996 -0.12403921 331.51486701 -0.12433882 335.41130329 -0.12089889 C336.82719384 -0.12047318 338.24308608 -0.12176913 339.65897327 -0.12488318 C341.5710632 -0.12884687 343.48316358 -0.12615649 345.39525509 -0.12304783 C346.46113006 -0.12342755 347.52700502 -0.12380727 348.62517923 -0.1241985 C351 0 351 0 352 1 C352.09762197 3.34026481 352.12997818 5.65098985 352.12025452 7.99171448 C352.12111053 8.72989914 352.12196655 9.4680838 352.12284851 10.2286377 C352.12451363 12.72870236 352.11896406 15.22870115 352.11352539 17.72875977 C352.1132193 19.54110938 352.11335213 21.35345912 352.11389065 23.16580868 C352.1141172 28.0367246 352.10830466 32.90761615 352.10128021 37.77852631 C352.09560204 42.34254537 352.09531801 46.90655839 352.09460449 51.47058105 C352.08934884 64.83455729 352.07538781 78.19852895 352.0625 91.5625 C352.041875 121.406875 352.02125 151.25125 352 182 C235.84 182 119.68 182 0 182 C0 121.94 0 61.88 0 0 Z " fill="#578DC5" transform="translate(28,363)"/>
<path d="M0 0 C161.04 0 322.08 0 488 0 C488 7.26 488 14.52 488 22 C459.54342612 21.26980233 431.11144458 20.02250761 402.6735599 18.77618074 C396.56738948 18.50894821 390.46113527 18.24364968 384.35488475 17.97825472 C372.21413211 17.45050397 360.07347078 16.92068206 347.93286133 16.38964844 C336.3248556 15.88191288 324.71678691 15.37565074 313.10864258 14.87109375 C312.39778838 14.84019573 311.68693417 14.80929771 310.95453893 14.77746339 C310.24456379 14.74660368 309.53458864 14.71574397 308.8030991 14.68394911 C295.3776338 14.10038625 281.95223214 13.51536992 268.52685724 12.92973138 C263.88879768 12.72744001 259.25072124 12.52553892 254.61263847 12.32378006 C223.84882498 10.98491467 193.08796164 9.59384644 162.32927385 8.14274441 C142.76919715 7.22003224 123.20830199 6.32576353 103.64457321 5.48424363 C99.94798878 5.32496518 96.25146464 5.16429689 92.55493164 5.00382996 C85.6793206 4.7055432 78.80366278 4.40835141 71.92798328 4.11164731 C64.04752764 3.77152383 56.16713125 3.43003608 48.28673744 3.08848345 C32.19121974 2.39089837 16.09563538 1.69486497 0 1 C0 0.67 0 0.34 0 0 Z " fill="#588FC6" transform="translate(19,182)"/>
<path d="M0 0 C115.17 0 230.34 0 349 0 C349 0.33 349 0.66 349 1 C319.36765245 3.17218796 289.73427977 5.33015044 260.10058594 7.48388672 C249.708164 8.23922343 239.31578364 8.99513168 228.92340088 9.75100708 C223.19893569 10.16736244 217.4744677 10.58367923 211.75 11 C209.45833332 11.16666648 207.16666665 11.33333315 204.875 11.5 C200.29166667 11.83333333 195.70833333 12.16666667 191.125 12.5 C189.99057465 12.58250504 188.85614929 12.66501007 187.68734741 12.75001526 C185.39619017 12.9166421 183.10503213 13.08325791 180.81387329 13.24986267 C175.07690572 13.66704804 169.33995232 14.0844265 163.60302734 14.50219727 C153.3838009 15.24619097 143.1644999 15.98902548 132.94464111 16.72428894 C127.33802373 17.12771911 121.73150378 17.53249459 116.125 17.9375 C115.01737305 18.01739166 113.90974609 18.09728333 112.76855469 18.17959595 C99.54161488 19.13527684 86.31752077 20.12268508 73.09646225 21.15630913 C70.90003645 21.32800001 68.70357744 21.49926048 66.5071106 21.67042542 C57.93653631 22.33842731 57.93653631 22.33842731 49.36676025 23.01657104 C32.91231027 24.32903245 16.49658698 25.38876652 0 26 C0 17.42 0 8.84 0 0 Z " fill="#4E7FB1" transform="translate(28,363)"/>
<path d="M0 0 C2.64 0 5.28 0 8 0 C8.49306641 1.25538574 8.49306641 1.25538574 8.99609375 2.53613281 C10.6622181 6.77481638 12.33082958 11.01251526 14 15.25 C14.31647491 16.05402252 14.63294983 16.85804504 14.95901489 17.68643188 C19.43359856 29.04881592 23.95326304 40.39248169 28.51249313 51.72111893 C29.33808265 53.77296688 30.1630081 55.82508051 30.98770142 57.87728882 C31.53802419 59.24664335 32.08834768 60.6159976 32.63867188 61.98535156 C33.04715394 63.00184123 33.04715394 63.00184123 33.46388817 64.03886604 C35.11058045 68.13513783 36.76208584 72.22943176 38.41673946 76.32249355 C39.46026994 78.90687273 40.49954726 81.49294712 41.53775215 84.07946968 C42.26293321 85.8821466 42.99346642 87.68266751 43.72410583 89.48313904 C44.15667191 90.56273392 44.58923798 91.6423288 45.03491211 92.75463867 C45.41602646 93.69925461 45.79714081 94.64387054 46.18980408 95.61711121 C47 98 47 98 47 101 C44.69 101 42.38 101 40 101 C38.2867268 96.62340717 36.57784507 92.24513541 34.87304688 87.86523438 C34.2922269 86.37485291 33.71020032 84.88494109 33.12695312 83.39550781 C32.28980472 81.25707769 31.45698106 79.11700743 30.625 76.9765625 C30.36251465 76.30879791 30.1000293 75.64103333 29.82958984 74.95303345 C28 70.22774341 28 70.22774341 28 68 C11.83 68 -4.34 68 -21 68 C-21.33 69.65 -21.66 71.3 -22 73 C-22.79442194 75.21923609 -23.63366226 77.42266708 -24.50390625 79.61328125 C-24.7466478 80.22769577 -24.98938934 80.84211029 -25.23948669 81.47514343 C-26.0098905 83.42251559 -26.78609451 85.36751397 -27.5625 87.3125 C-28.08827647 88.63851895 -28.61367113 89.96468936 -29.13867188 91.29101562 C-30.4213679 94.52910808 -31.70927349 97.76509885 -33 101 C-35.31 101 -37.62 101 -40 101 C-39.37468122 97.38244329 -38.39259095 94.18625469 -37.01318359 90.78710938 C-36.60070374 89.76451523 -36.18822388 88.74192108 -35.76324463 87.68833923 C-35.31285828 86.58462479 -34.86247192 85.48091034 -34.3984375 84.34375 C-33.92935974 83.18432388 -33.46028198 82.02489777 -32.97698975 80.83033752 C-31.7090038 77.69860412 -30.4371934 74.56847867 -29.16355133 71.43904495 C-27.84928664 68.2072727 -26.5398551 64.9735437 -25.22998047 61.73999023 C-23.13829402 56.57806307 -21.04385599 51.41726142 -18.94726562 46.25732422 C-16.34920708 39.86287931 -13.75875216 33.46538198 -11.171875 27.06640625 C-9.82312577 23.73168622 -8.47412104 20.39706962 -7.125 17.0625 C-6.65426056 15.89871826 -6.65426056 15.89871826 -6.17401123 14.71142578 C-5.30699653 12.56897606 -4.43886133 10.4269844 -3.5703125 8.28515625 C-3.09352051 7.10832275 -2.61672852 5.93148926 -2.12548828 4.71899414 C-1.46566395 3.12496734 -0.77152959 1.54305919 0 0 Z " fill="#F7FAFD" transform="translate(248,222)"/>
<path d="M0 0 C56.03125 0 56.03125 0 65 7 C71.13311873 14.2003071 72.48355467 20.33197755 72.41015625 29.6640625 C71.76965075 34.87350721 69.57500927 38.24624026 66 42 C62.84244568 44.46289237 59.62910576 46.32502811 56 48 C57.8253125 48.61875 57.8253125 48.61875 59.6875 49.25 C66.45169772 51.85344341 70.24841737 55.75885523 73.82421875 62.0234375 C76.66184803 69.20707043 75.94111497 77.21311922 73.5 84.4375 C69.95143627 92.0202204 63.69822383 96.11043605 56.17578125 99.2734375 C38.40624377 105.20725074 18.73410264 101 0 101 C0 67.67 0 34.34 0 0 Z M6 6 C6 18.87 6 31.74 6 45 C12.10224926 45.09218673 18.20205074 45.17171781 24.30444336 45.21972656 C26.37711811 45.23975397 28.449737 45.26698411 30.5222168 45.30175781 C33.51364996 45.350668 36.50433155 45.37305793 39.49609375 45.390625 C40.41208847 45.41127014 41.32808319 45.43191528 42.27183533 45.45318604 C49.44309861 45.45564744 55.58239787 43.87895832 61.15625 39.18359375 C61.82140625 38.31927734 61.82140625 38.31927734 62.5 37.4375 C62.9640625 36.85871094 63.428125 36.27992188 63.90625 35.68359375 C67.24515716 30.54406166 66.83417887 23.83925209 66 18 C63.58793693 13.3691252 60.09466111 10.25117801 55.375 8.0625 C49.29014883 6.1468987 43.87684001 5.86481192 37.54296875 5.90234375 C36.18852409 5.90446617 36.18852409 5.90446617 34.80671692 5.90663147 C31.93361037 5.91221177 29.06058284 5.92476066 26.1875 5.9375 C24.23502717 5.94251755 22.28255311 5.94708001 20.33007812 5.95117188 C15.55333076 5.96132221 10.77675344 5.98090147 6 6 Z M6 51 C6 65.52 6 80.04 6 95 C15.8071875 95.0928125 15.8071875 95.0928125 25.8125 95.1875 C28.87301636 95.22846802 28.87301636 95.22846802 31.99536133 95.27026367 C48.76236721 95.57457434 48.76236721 95.57457434 63.5625 88.48828125 C68.13523782 83.75400649 69.27656127 79.00134376 69.5625 72.5 C69.36225416 67.55106698 68.86474732 63.74634164 65.88671875 59.71875 C57.47527204 52.05614844 47.49859171 50.83580031 36.6640625 50.90234375 C35.49363403 50.90385437 35.49363403 50.90385437 34.29956055 50.90539551 C31.40802524 50.91059459 28.51651101 50.92455567 25.625 50.9375 C15.910625 50.9684375 15.910625 50.9684375 6 51 Z " fill="#F9FBFD" transform="translate(365,222)"/>
<path d="M0 0 C58.5 0 58.5 0 68.375 8.33203125 C73.40111872 13.49105215 74.26966913 18.2275453 74.5 25.375 C74.25805057 32.9812853 73.3149385 39.29059074 68.12890625 45.09375 C64.74449434 48.21585399 61.50270425 50.73361443 57 52 C57.59167969 52.29132813 58.18335938 52.58265625 58.79296875 52.8828125 C66.48706729 56.87420456 70.70156044 61.11728177 73.36669922 69.4140625 C74.47687227 73.9471978 74.53597474 78.4766096 74.625 83.125 C74.78885564 89.16308048 74.99250765 95.03762726 76 101 C73.69 101 71.38 101 69 101 C65.99053907 94.13842909 66.64387884 86.64619255 66.609375 79.296875 C66.46932043 72.80767999 66.32542352 67.11820655 62 62 C55.27201822 57.3670704 48.97333847 56.25904984 40.9609375 56.29296875 C40.06673096 56.27834595 39.17252441 56.26372314 38.2512207 56.24865723 C34.95941705 56.20183114 31.6671229 56.19702808 28.375 56.1875 C17.299375 56.0946875 17.299375 56.0946875 6 56 C6 70.85 6 85.7 6 101 C4.02 101 2.04 101 0 101 C0 67.67 0 34.34 0 0 Z M6 6 C6 20.52 6 35.04 6 50 C13.074375 50.0825 20.14875 50.165 27.4375 50.25 C29.65267334 50.28641602 31.86784668 50.32283203 34.15014648 50.36035156 C35.93211909 50.37204855 37.71410249 50.38223797 39.49609375 50.390625 C40.85208679 50.4213208 40.85208679 50.4213208 42.23547363 50.45263672 C49.87328144 50.45677477 55.38242734 48.2509341 61.8125 44.25 C66.56352713 39.36322924 68.24979887 34.75446387 68.4375 27.9375 C68.16347338 21.12965122 66.96064468 16.60728613 61.9375 11.75 C54.84914761 6.29990685 46.50553136 5.55153199 37.8359375 5.70703125 C36.6125769 5.71156311 36.6125769 5.71156311 35.36450195 5.71618652 C32.36786937 5.73167913 29.37141962 5.7735601 26.375 5.8125 C19.65125 5.874375 12.9275 5.93625 6 6 Z " fill="#F9FCFF" transform="translate(383,40)"/>
<path d="M0 0 C11.28020568 8.07881174 18.2139148 20.22504654 20.953125 33.68359375 C23.38283106 51.45197851 20.96145895 67.52354446 10.46484375 82.42578125 C9.88734375 83.31265625 9.30984375 84.19953125 8.71484375 85.11328125 C-0.35021978 94.4301521 -11.96940617 99.44712478 -24.8671875 99.66748047 C-39.08129228 99.71757163 -47.98864099 96.29103682 -59.72265625 88.23828125 C-71.1044893 76.8564482 -75.66832867 62.30444455 -75.84765625 46.61328125 C-75.76518446 30.61870292 -71.3149744 16.43856298 -60.09375 4.6875 C-43.8167791 -9.70084527 -18.35207618 -11.39581926 0 0 Z M-59.53515625 13.42578125 C-68.65037512 26.03230093 -70.98967142 39.17850964 -69.53515625 54.42578125 C-67.38057277 66.13652859 -62.56351669 78.036321 -52.921875 85.4296875 C-50.18661233 87.24184631 -47.42105651 88.86663455 -44.53515625 90.42578125 C-43.91253906 90.78800781 -43.28992188 91.15023437 -42.6484375 91.5234375 C-34.23237361 95.58962567 -21.82361425 94.48219749 -13.09765625 91.86328125 C-1.62033814 87.35096577 5.923656 80.32676898 10.96875 69.0703125 C17.06682081 53.6948348 17.41719946 37.28142132 10.77734375 21.90234375 C5.13762744 11.2607362 -3.62529587 3.64107697 -15.09741211 0.02124023 C-31.90774224 -4.08495858 -48.12639298 0.37873537 -59.53515625 13.42578125 Z " fill="#F8FBFF" transform="translate(292.53515625,44.57421875)"/>
<path d="M0 0 C0.86625 0.53625 1.7325 1.0725 2.625 1.625 C8.19491296 7.19491296 11.93070924 13.84255446 12.0625 21.75 C12.041875 22.8225 12.02125 23.895 12 25 C10.02 25 8.04 25 6 25 C5.82984375 24.27554688 5.6596875 23.55109375 5.484375 22.8046875 C3.33135111 14.21549647 0.96151095 8.82155317 -6.70703125 4.078125 C-12.88632266 1.17270008 -18.67693978 0.66075056 -25.375 0.6875 C-26.17421875 0.67138672 -26.9734375 0.65527344 -27.796875 0.63867188 C-35.01503688 0.63283194 -42.45106306 1.88031974 -47.9375 6.9375 C-48.48277344 7.42089844 -49.02804688 7.90429688 -49.58984375 8.40234375 C-53.72481698 13.08711952 -53.42875857 17.84551793 -53.30078125 23.8671875 C-52.89660685 28.07690007 -52.03861343 30.03549909 -49 33 C-42.15493669 38.40568084 -33.6857922 39.6750331 -25.37939453 41.47314453 C4.90720599 48.17933004 4.90720599 48.17933004 13 60 C16.20293822 66.12736008 16.1540804 74.21568984 14.16015625 80.75390625 C10.20428084 89.47814326 3.88447236 94.61164782 -4.82421875 98.2734375 C-17.05674013 102.35826511 -33.73784629 101.1485384 -45.3125 95.6875 C-55.17828057 90.26365855 -59.42176589 83.73470233 -63 73 C-63.06802967 71.27204648 -63.08495645 69.54164635 -63.0625 67.8125 C-63.05347656 66.91144531 -63.04445313 66.01039062 -63.03515625 65.08203125 C-63.02355469 64.39496094 -63.01195313 63.70789063 -63 63 C-61.02 63 -59.04 63 -57 63 C-56.91363281 63.845625 -56.82726562 64.69125 -56.73828125 65.5625 C-55.71046183 73.86049162 -54.50111968 80.10377388 -48.0234375 85.7109375 C-36.6208912 93.97073252 -23.48381351 94.362228 -9.93359375 92.6015625 C-3.27117839 90.99590997 1.53143705 87.10413537 6 82 C9.10481018 76.16295687 8.65433837 69.57373091 7.0625 63.3125 C2.8109011 56.48417449 -4.47696167 53.27141464 -12 51 C-17.76212988 49.68249704 -23.57166041 48.59154686 -29.3828125 47.51367188 C-41.38467877 45.1119969 -51.79915735 41.34684187 -59 31 C-61.57870284 25.84259432 -60.73669322 17.65747834 -60 12 C-57.55845595 5.27899682 -52.12479167 0.47593104 -46 -3 C-31.55963313 -9.34878199 -13.43999037 -8.51089855 0 0 Z " fill="#F8FBFF" transform="translate(137,44)"/>
<path d="M0 0 C22.44 0 44.88 0 68 0 C68 1.65 68 3.3 68 5 C47.54 5 27.08 5 6 5 C6 18.2 6 31.4 6 45 C25.14 45 44.28 45 64 45 C64 46.98 64 48.96 64 51 C44.86 51 25.72 51 6 51 C6 65.52 6 80.04 6 95 C26.79 95 47.58 95 69 95 C69 96.98 69 98.96 69 101 C46.23 101 23.46 101 0 101 C0 67.67 0 34.34 0 0 Z " fill="#FDFDFE" transform="translate(234,404)"/>
<path d="M0 0 C0.66 0 1.32 0 2 0 C2.28609131 0.75804932 2.57218262 1.51609863 2.86694336 2.29711914 C3.97316964 5.22622259 5.08040263 8.15494266 6.18856812 11.08331299 C6.68684115 12.40008897 7.18490922 13.71694252 7.68276978 15.03387451 C10.32499911 22.01983469 12.98444866 28.99693368 15.734375 35.94140625 C16.14953369 36.98997803 16.56469238 38.0385498 16.99243164 39.11889648 C17.77614553 41.09026913 18.56424568 43.0599049 19.35717773 45.02758789 C19.70723877 45.90793701 20.0572998 46.78828613 20.41796875 47.6953125 C20.87852661 48.8402417 20.87852661 48.8402417 21.34838867 50.00830078 C22 52 22 52 22 55 C7.81 55 -6.38 55 -21 55 C-17.625 43.75 -17.625 43.75 -16.00708008 39.73388672 C-15.46685966 38.38361893 -15.46685966 38.38361893 -14.91572571 37.006073 C-14.34835945 35.60701218 -14.34835945 35.60701218 -13.76953125 34.1796875 C-13.37424728 33.19501495 -12.97896332 32.21034241 -12.57170105 31.1958313 C-11.32271424 28.08722749 -10.06771814 24.98109215 -8.8125 21.875 C-7.958584 19.75276522 -7.10506459 17.63037082 -6.25195312 15.5078125 C-4.17254725 10.33668861 -2.08821772 5.16757129 0 0 Z " fill="#64A0DD" transform="translate(251,229)"/>
<path d="M0 0 C25.74 0 51.48 0 78 0 C78 1.98 78 3.96 78 6 C66.12 6 54.24 6 42 6 C42 37.35 42 68.7 42 101 C40.02 101 38.04 101 36 101 C36 69.65 36 38.3 36 6 C24.12 6 12.24 6 0 6 C0 4.02 0 2.04 0 0 Z " fill="#FEFEFE" transform="translate(61,222)"/>
<path d="M0 0 C1.98 0 3.96 0 6 0 C6 31.35 6 62.7 6 95 C24.81 95 43.62 95 63 95 C63 96.98 63 98.96 63 101 C42.21 101 21.42 101 0 101 C0 67.67 0 34.34 0 0 Z " fill="#F8FAFC" transform="translate(105,404)"/>
</svg>
